# xmcd
#
# Track frame offsets: 
#        150
#        23045
#        43592
#        67687
#        94340
#        123715
#        144780
#        173315
#        198210
#        219847
#
# Disc length: 3257 seconds
#
# Revision: 2
# Processed by: cddbd v1.5.2PL0 Copyright (c) Steve Scherf et al.
# Submitted via: ExactAudioCopy v1.0b3
#
DISCID=780cb70a
DTITLE=Manh Quynh - Nhan Co Cho Em 2
DYEAR=1999
DGENRE=Blues
TTITLE0=Nhan co cho em 2
TTITLE1=Tam anh khong hon
TTITLE2=Chanh long
TTITLE3=Bien dau
TTITLE4=Xa roi mua dong
TTITLE5=Sao em loi hen
TTITLE6=Se co mot ngay
TTITLE7=Di vang buon
TTITLE8=Thuong dau
TTITLE9=Chuyen xe trong cuoc doi
EXTD=
EXTT0=
EXTT1=
EXTT2=
EXTT3=
EXTT4=
EXTT5=
EXTT6=
EXTT7=
EXTT8=
EXTT9=
PLAYORDER=
